<?xml version="1.0" standalone="no"?>
<!DOCTYPE svg PUBLIC "-//W3C//DTD SVG 20010904//EN"
 "http://www.w3.org/TR/2001/REC-SVG-20010904/DTD/svg10.dtd">
<svg version="1.0" xmlns="http://www.w3.org/2000/svg"
 width="200.000000pt" height="200.000000pt" viewBox="0 0 200.000000 200.000000"
 preserveAspectRatio="xMidYMid meet">

<g transform="translate(0.000000,200.000000) scale(0.100000,-0.100000)"
fill="#000000" stroke="none">
<path d="M979 1360 c-159 -5 -168 -6 -225 -35 -54 -27 -62 -36 -94 -100 -34
-68 -35 -73 -38 -207 -4 -136 8 -277 30 -351 16 -52 55 -82 147 -111 202 -64
454 -54 612 23 49 24 56 31 74 81 28 79 29 370 1 480 -53 209 -106 232 -507
220z m321 -41 c102 -20 100 -16 100 -197 0 -215 -13 -332 -39 -353 -45 -37
-342 -51 -479 -23 -93 19 -130 37 -142 70 -6 14 -10 124 -10 244 0 179 3 221
15 233 38 39 400 55 555 26z m-600 -371 c-1 -251 -3 -289 -14 -268 -39 73 -49
443 -14 523 10 20 19 37 22 37 4 0 6 -132 6 -292z m774 -50 c1 -187 -9 -226
-37 -136 -15 46 -16 74 -7 208 5 85 10 166 11 180 1 16 7 6 16 -30 11 -37 16
-108 17 -222z m-693 -157 c22 -18 22 -20 9 -76 -14 -60 -30 -76 -55 -55 -11 9
-14 26 -9 69 9 90 14 96 55 62z m637 -26 c16 -60 15 -90 -2 -104 -12 -10 -18
-8 -30 11 -9 13 -21 39 -27 57 -10 29 -9 35 12 57 12 13 25 24 29 24 3 0 11
-20 18 -45z m-275 -12 l168 5 24 -49 c14 -26 25 -55 25 -63 0 -28 -216 -61
-345 -52 -92 6 -190 27 -207 44 -8 8 -3 33 26 118 3 8 24 8 73 1 37 -5 144 -7
236 -4z"/>
<path d="M788 1289 c-31 -12 -42 -34 -28 -57 8 -14 9 -12 10 9 0 28 16 39 56
39 13 0 24 5 24 10 0 12 -26 12 -62 -1z"/>
<path d="M855 1133 c-23 -23 -35 -58 -35 -104 0 -31 7 -47 29 -70 16 -16 38
-29 48 -29 26 0 63 28 63 47 0 14 -4 13 -23 -5 -13 -12 -31 -22 -40 -22 -28 0
-57 41 -57 81 0 75 38 123 66 84 18 -24 29 -13 14 14 -13 25 -42 27 -65 4z"/>
<path d="M1080 1032 c0 -64 3 -112 8 -108 4 4 7 28 7 54 0 62 20 65 37 6 7
-26 18 -49 25 -51 8 -3 6 12 -4 47 -14 47 -13 52 2 64 12 8 16 23 13 51 -3 39
-4 40 -45 46 l-43 5 0 -114z m76 66 c4 -15 1 -25 -12 -35 -25 -18 -41 -16 -47
6 -11 44 45 73 59 29z"/>
<path d="M950 1130 c0 -5 9 -10 20 -10 18 0 20 -7 21 -62 2 -97 3 -116 12
-124 4 -4 7 36 7 89 0 90 1 97 20 97 11 0 20 5 20 10 0 6 -22 10 -50 10 -27 0
-50 -4 -50 -10z"/>
<path d="M1228 1134 c-5 -4 -8 -52 -8 -106 l0 -98 38 1 c37 1 37 1 10 12 -27
10 -27 13 -30 105 -2 51 -6 90 -10 86z"/>
<path d="M1345 897 c-4 -10 -5 -21 -1 -24 10 -10 18 4 13 24 -4 17 -4 17 -12
0z"/>
<path d="M1341 839 c-1 -23 -30 -46 -71 -57 l-35 -10 32 -1 c40 -1 87 36 80
64 -3 14 -5 15 -6 4z"/>
</g>
</svg>
