<?xml version="1.0" standalone="no"?>
<!DOCTYPE svg PUBLIC "-//W3C//DTD SVG 20010904//EN"
 "http://www.w3.org/TR/2001/REC-SVG-20010904/DTD/svg10.dtd">
<svg version="1.0" xmlns="http://www.w3.org/2000/svg"
 width="240.000000pt" height="240.000000pt" viewBox="0 0 240.000000 240.000000"
 preserveAspectRatio="xMidYMid meet">

<g transform="translate(0.000000,240.000000) scale(0.100000,-0.100000)"
fill="#000000" stroke="none">
<path d="M896 2298 c-54 -15 -110 -74 -124 -131 -7 -25 -12 -100 -12 -166 l0
-119 -172 -4 c-199 -4 -231 -13 -283 -87 l-30 -43 0 -761 c0 -750 0 -763 20
-797 12 -19 40 -48 64 -65 l43 -30 516 -3 c585 -4 602 -2 661 57 49 49 61 98
61 249 l0 120 173 4 c198 4 230 13 282 87 l30 43 3 581 3 581 -248 248 -248
248 -350 -1 c-204 -1 -366 -5 -389 -11z m664 -316 c0 -189 2 -210 18 -225 15
-14 50 -17 228 -19 l209 -3 0 -528 0 -529 -24 -19 c-22 -18 -46 -19 -547 -19
-511 0 -525 1 -544 20 -20 20 -20 33 -20 755 0 722 0 735 20 755 19 19 33 20
340 20 l320 0 0 -208z m245 -2 l130 -130 -133 0 -132 0 0 130 c0 72 1 130 3
130 1 0 61 -58 132 -130z"/>
</g>
</svg>
